<svg width="19" height="19" viewBox="0 0 19 19" fill="none" xmlns="http://www.w3.org/2000/svg">
<circle cx="9.50048" cy="5.60497" r="2.4383" stroke="#0072CE" stroke-width="1.58333"/>
<mask id="path-2-inside-1" fill="white">
<path fill-rule="evenodd" clip-rule="evenodd" d="M3.38177 14.9589C3.17435 15.8287 3.90685 16.5767 4.80096 16.5767H14.487C15.3811 16.5767 16.1136 15.8287 15.9062 14.9589C15.1669 11.8589 12.6434 9.57581 9.64397 9.57581C6.64459 9.57581 4.12106 11.8589 3.38177 14.9589Z"/>
</mask>
<path d="M15.9062 14.9589L14.366 15.3262L15.9062 14.9589ZM4.80096 18.1601H14.487V14.9934H4.80096V18.1601ZM9.64397 11.1591C11.7824 11.1591 13.7652 12.8067 14.366 15.3262L17.4463 14.5916C16.5686 10.9111 13.5043 7.99247 9.64397 7.99247V11.1591ZM4.92191 15.3262C5.52276 12.8067 7.5055 11.1591 9.64397 11.1591V7.99247C5.78369 7.99247 2.71936 10.9111 1.84162 14.5916L4.92191 15.3262ZM14.487 18.1601C16.1603 18.1601 17.9446 16.6808 17.4463 14.5916L14.366 15.3262C14.3557 15.2827 14.3539 15.2203 14.3721 15.1547C14.3893 15.0931 14.4174 15.0516 14.4383 15.0287C14.475 14.9883 14.4964 14.9934 14.487 14.9934V18.1601ZM4.80096 14.9934C4.79155 14.9934 4.81297 14.9883 4.84964 15.0287C4.87054 15.0516 4.89867 15.0931 4.91581 15.1547C4.93404 15.2203 4.93228 15.2827 4.92191 15.3262L1.84162 14.5916C1.34339 16.6808 3.12761 18.1601 4.80096 18.1601V14.9934Z" fill="#0072CE" mask="url(#path-2-inside-1)"/>
</svg>
