<svg width="8" height="12" viewBox="0 0 8 12" fill="none" xmlns="http://www.w3.org/2000/svg">
<path fill-rule="evenodd" clip-rule="evenodd" d="M7.39813 3.07593C7.40645 1.37792 6.05852 0.00425072 4.37965 1.39178e-05C2.70376 -0.00500747 1.34202 1.34936 1.33213 3.0298C1.32272 4.69203 2.68352 6.06774 4.34309 6.07339C6.01929 6.07904 7.38919 4.73456 7.39813 3.07593ZM6.46588 8.11615C6.96237 7.9233 7.40927 7.64775 7.78054 7.26628C8.02283 7.01772 8.02549 6.70514 7.82825 6.3855C7.65595 6.10493 7.35749 5.9874 7.03659 6.06978C6.87151 6.11152 6.72919 6.19563 6.59628 6.29715C5.2529 7.20053 3.41429 7.17496 2.07608 6.25541C2.01049 6.21006 1.94208 6.16754 1.87005 6.1338C1.49894 5.95884 1.14148 6.04075 0.92901 6.34548C0.680295 6.70185 0.711835 7.04722 1.02599 7.34913C1.09104 7.41144 1.16277 7.46695 1.23427 7.52229L1.23428 7.52229C1.25246 7.53637 1.27063 7.55043 1.28867 7.56458C2.00657 8.12635 2.84546 8.35514 3.77583 8.45227C3.75144 8.47835 3.73031 8.50143 3.71106 8.52245C3.67842 8.55809 3.6512 8.58782 3.62267 8.61625L3.22854 9.01144C2.67769 9.56381 2.1268 10.1162 1.57489 10.6675C1.4335 10.8087 1.33213 10.9659 1.32209 11.1718C1.3075 11.4767 1.49611 11.7797 1.793 11.9236C2.07279 12.059 2.35917 12.0165 2.60004 11.7789C3.13623 11.2503 3.66896 10.7185 4.19354 10.1784C4.32504 10.043 4.3966 10.0139 4.5452 10.1696C4.88693 10.5271 5.23801 10.876 5.58922 11.225C5.76278 11.3975 5.93638 11.57 6.10889 11.7436C6.24478 11.8803 6.39793 11.9781 6.5944 11.9919C6.90478 12.0132 7.22097 11.815 7.36235 11.513C7.49181 11.2369 7.44223 10.9427 7.20779 10.7056C6.767 10.2599 6.32409 9.8162 5.88116 9.37246C5.63203 9.12287 5.38289 8.87328 5.13411 8.62331C5.09669 8.58527 5.06631 8.55206 5.01783 8.49905L5.0178 8.49902L4.97327 8.45039C5.48231 8.38951 5.99654 8.29755 6.46588 8.11615ZM5.85132 3.03518C5.8543 3.86042 5.19853 4.52151 4.37518 4.52418C3.54932 4.52763 2.88618 3.87517 2.88006 3.05307C2.87363 2.2203 3.53692 1.5512 4.36749 1.55199C5.19116 1.55262 5.84802 2.20995 5.85132 3.03518Z" fill="white"/>
</svg>
