<svg width="29" height="23" viewBox="0 0 29 23" fill="none" xmlns="http://www.w3.org/2000/svg">
<path fill-rule="evenodd" clip-rule="evenodd" d="M24.4375 0C26.8192 0 28.75 1.93077 28.75 4.3125V18.6875C28.75 21.0692 26.8192 23 24.4375 23H4.3125C1.93077 23 0 21.0692 0 18.6875V4.3125C0 1.93077 1.93077 0 4.3125 0H24.4375ZM25.875 4.78418L15.3216 14.0195C14.8248 14.4542 14.1034 14.4904 13.5692 14.1282L13.4284 14.0195L2.875 4.78562V18.6877C2.875 19.4816 3.51859 20.1252 4.3125 20.1252H24.4375C25.2314 20.1252 25.875 19.4816 25.875 18.6877V4.78418ZM23.69 2.875H5.05714L14.375 11.0274L23.69 2.875Z" fill="black"/>
</svg>
