<svg width="28" height="26" viewBox="0 0 28 26" fill="none" xmlns="http://www.w3.org/2000/svg">
<path d="M25.6986 2.47245C24.2332 0.902641 22.1581 0 20.0042 0C17.8504 0 15.7752 0.902641 14.3098 2.47245L14.0049 2.79623L13.7 2.47245C10.7791 -0.657359 5.85177 -0.833962 2.7046 2.07019C2.56691 2.19774 2.42922 2.33509 2.30137 2.47245C-0.767123 5.77887 -0.767123 10.9494 2.30137 14.2558L13.1099 25.6174C13.3558 25.8725 13.6804 26 14.0049 26C14.3098 26 14.6147 25.8921 14.8507 25.6664L25.6986 14.2657C28.7671 10.9494 28.7671 5.77887 25.6986 2.47245ZM23.9185 12.5683L14.0049 22.9879L4.09132 12.5683C1.89814 10.2136 1.89814 6.51472 4.09132 4.15019C5.14366 3.0317 6.56972 2.45283 8.00562 2.45283C9.29399 2.45283 10.5922 2.91396 11.6052 3.85585C11.7134 3.95396 11.8117 4.05208 11.9101 4.16L13.1198 5.42566C13.6115 5.90642 14.4081 5.90641 14.8999 5.41585L16.0998 4.15019C18.0864 2.00151 21.4598 1.86415 23.6136 3.84604C23.7218 3.94415 23.8202 4.04226 23.9185 4.15019C26.1412 6.53434 26.1412 10.2332 23.9185 12.5683Z" fill="black"/>
</svg>
