<svg width="73" height="73" viewBox="0 0 73 73" fill="none" xmlns="http://www.w3.org/2000/svg">
<path d="M11.3323 67.752C11.8123 67.752 12.0523 67.956 12.0523 68.364C12.0523 68.788 11.8123 69 11.3323 69H7.27631C6.78831 69 6.54431 68.788 6.54431 68.364C6.54431 67.956 6.78831 67.752 7.27631 67.752H8.52431V62.28L7.37231 62.988C7.26031 63.052 7.16031 63.084 7.07231 63.084C6.90431 63.084 6.76031 63.012 6.64031 62.868C6.52831 62.724 6.47231 62.564 6.47231 62.388C6.47231 62.156 6.57631 61.976 6.78431 61.848L8.64431 60.696C8.88431 60.552 9.11231 60.48 9.32831 60.48C9.55231 60.48 9.73231 60.548 9.86831 60.684C10.0043 60.82 10.0723 61.008 10.0723 61.248V67.752H11.3323ZM21.7494 67.752C22.2294 67.752 22.4694 67.956 22.4694 68.364C22.4694 68.788 22.2294 69 21.7494 69H17.1894C16.9814 69 16.8174 68.94 16.6974 68.82C16.5774 68.692 16.5174 68.536 16.5174 68.352C16.5174 68.112 16.6094 67.896 16.7934 67.704L19.5294 64.764C19.8654 64.396 20.1094 64.06 20.2614 63.756C20.4214 63.444 20.5014 63.136 20.5014 62.832C20.5014 62.456 20.3934 62.168 20.1774 61.968C19.9614 61.768 19.6534 61.668 19.2534 61.668C18.9254 61.668 18.6054 61.732 18.2934 61.86C17.9894 61.98 17.6814 62.148 17.3694 62.364C17.2894 62.42 17.2094 62.468 17.1294 62.508C17.0494 62.54 16.9694 62.556 16.8894 62.556C16.7534 62.556 16.6334 62.492 16.5294 62.364C16.4334 62.236 16.3854 62.084 16.3854 61.908C16.3854 61.788 16.4054 61.684 16.4454 61.596C16.4934 61.508 16.5654 61.424 16.6614 61.344C17.0134 61.064 17.4254 60.844 17.8974 60.684C18.3694 60.516 18.8414 60.432 19.3134 60.432C20.1374 60.432 20.7934 60.64 21.2814 61.056C21.7774 61.472 22.0254 62.032 22.0254 62.736C22.0254 63.224 21.9214 63.684 21.7134 64.116C21.5054 64.54 21.1534 65.016 20.6574 65.544L18.5814 67.752H21.7494ZM28.9565 67.752C29.4365 67.752 29.6765 67.956 29.6765 68.364C29.6765 68.788 29.4365 69 28.9565 69H24.3965C24.1885 69 24.0245 68.94 23.9045 68.82C23.7845 68.692 23.7245 68.536 23.7245 68.352C23.7245 68.112 23.8165 67.896 24.0005 67.704L26.7365 64.764C27.0725 64.396 27.3165 64.06 27.4685 63.756C27.6285 63.444 27.7085 63.136 27.7085 62.832C27.7085 62.456 27.6005 62.168 27.3845 61.968C27.1685 61.768 26.8605 61.668 26.4605 61.668C26.1325 61.668 25.8125 61.732 25.5005 61.86C25.1965 61.98 24.8885 62.148 24.5765 62.364C24.4965 62.42 24.4165 62.468 24.3365 62.508C24.2565 62.54 24.1765 62.556 24.0965 62.556C23.9605 62.556 23.8405 62.492 23.7365 62.364C23.6405 62.236 23.5925 62.084 23.5925 61.908C23.5925 61.788 23.6125 61.684 23.6525 61.596C23.7005 61.508 23.7725 61.424 23.8685 61.344C24.2205 61.064 24.6325 60.844 25.1045 60.684C25.5765 60.516 26.0485 60.432 26.5205 60.432C27.3445 60.432 28.0005 60.64 28.4885 61.056C28.9845 61.472 29.2325 62.032 29.2325 62.736C29.2325 63.224 29.1285 63.684 28.9205 64.116C28.7125 64.54 28.3605 65.016 27.8645 65.544L25.7885 67.752H28.9565ZM33.7875 69.108C32.7875 69.108 32.0235 68.74 31.4955 68.004C30.9675 67.26 30.7035 66.18 30.7035 64.764C30.7035 63.356 30.9675 62.284 31.4955 61.548C32.0235 60.804 32.7875 60.432 33.7875 60.432C34.7875 60.432 35.5515 60.804 36.0795 61.548C36.6075 62.284 36.8715 63.356 36.8715 64.764C36.8715 66.172 36.6075 67.248 36.0795 67.992C35.5515 68.736 34.7875 69.108 33.7875 69.108ZM33.7875 67.896C34.3315 67.896 34.7275 67.648 34.9755 67.152C35.2235 66.648 35.3475 65.852 35.3475 64.764C35.3475 63.668 35.2235 62.876 34.9755 62.388C34.7275 61.892 34.3315 61.644 33.7875 61.644C33.2435 61.644 32.8475 61.892 32.5995 62.388C32.3515 62.884 32.2275 63.676 32.2275 64.764C32.2275 65.852 32.3515 66.648 32.5995 67.152C32.8475 67.648 33.2435 67.896 33.7875 67.896ZM44.2406 69.108C43.2406 69.108 42.4766 68.74 41.9486 68.004C41.4206 67.26 41.1566 66.18 41.1566 64.764C41.1566 63.356 41.4206 62.284 41.9486 61.548C42.4766 60.804 43.2406 60.432 44.2406 60.432C45.2406 60.432 46.0046 60.804 46.5326 61.548C47.0606 62.284 47.3246 63.356 47.3246 64.764C47.3246 66.172 47.0606 67.248 46.5326 67.992C46.0046 68.736 45.2406 69.108 44.2406 69.108ZM44.2406 67.896C44.7846 67.896 45.1806 67.648 45.4286 67.152C45.6766 66.648 45.8006 65.852 45.8006 64.764C45.8006 63.668 45.6766 62.876 45.4286 62.388C45.1806 61.892 44.7846 61.644 44.2406 61.644C43.6966 61.644 43.3006 61.892 43.0526 62.388C42.8046 62.884 42.6806 63.676 42.6806 64.764C42.6806 65.852 42.8046 66.648 43.0526 67.152C43.3006 67.648 43.6966 67.896 44.2406 67.896ZM51.4359 69.108C50.4359 69.108 49.6719 68.74 49.1439 68.004C48.6159 67.26 48.3519 66.18 48.3519 64.764C48.3519 63.356 48.6159 62.284 49.1439 61.548C49.6719 60.804 50.4359 60.432 51.4359 60.432C52.4359 60.432 53.1999 60.804 53.7279 61.548C54.2559 62.284 54.5199 63.356 54.5199 64.764C54.5199 66.172 54.2559 67.248 53.7279 67.992C53.1999 68.736 52.4359 69.108 51.4359 69.108ZM51.4359 67.896C51.9799 67.896 52.3759 67.648 52.6239 67.152C52.8719 66.648 52.9959 65.852 52.9959 64.764C52.9959 63.668 52.8719 62.876 52.6239 62.388C52.3759 61.892 51.9799 61.644 51.4359 61.644C50.8919 61.644 50.4959 61.892 50.2479 62.388C49.9999 62.884 49.8759 63.676 49.8759 64.764C49.8759 65.852 49.9999 66.648 50.2479 67.152C50.4959 67.648 50.8919 67.896 51.4359 67.896ZM58.6313 69.108C57.6313 69.108 56.8673 68.74 56.3393 68.004C55.8113 67.26 55.5473 66.18 55.5473 64.764C55.5473 63.356 55.8113 62.284 56.3393 61.548C56.8673 60.804 57.6313 60.432 58.6313 60.432C59.6313 60.432 60.3953 60.804 60.9233 61.548C61.4513 62.284 61.7153 63.356 61.7153 64.764C61.7153 66.172 61.4513 67.248 60.9233 67.992C60.3953 68.736 59.6313 69.108 58.6313 69.108ZM58.6313 67.896C59.1753 67.896 59.5713 67.648 59.8193 67.152C60.0673 66.648 60.1913 65.852 60.1913 64.764C60.1913 63.668 60.0673 62.876 59.8193 62.388C59.5713 61.892 59.1753 61.644 58.6313 61.644C58.0873 61.644 57.6913 61.892 57.4433 62.388C57.1953 62.884 57.0713 63.676 57.0713 64.764C57.0713 65.852 57.1953 66.648 57.4433 67.152C57.6913 67.648 58.0873 67.896 58.6313 67.896ZM68.2204 65.436V66.312H69.8524C69.9964 66.312 70.1124 66.356 70.2004 66.444C70.2964 66.532 70.3444 66.648 70.3444 66.792C70.3444 66.936 70.2964 67.052 70.2004 67.14C70.1124 67.22 69.9964 67.26 69.8524 67.26H68.2204V68.292C68.2204 68.54 68.1484 68.732 68.0044 68.868C67.8684 69.004 67.6924 69.072 67.4764 69.072C67.2604 69.072 67.0804 69.004 66.9364 68.868C66.8004 68.732 66.7324 68.54 66.7324 68.292V67.26H66.0724C65.9364 67.26 65.8164 67.216 65.7124 67.128C65.6164 67.04 65.5684 66.928 65.5684 66.792C65.5684 66.648 65.6164 66.532 65.7124 66.444C65.8164 66.356 65.9364 66.312 66.0724 66.312H66.7324V65.436H66.0724C65.9364 65.436 65.8164 65.392 65.7124 65.304C65.6164 65.208 65.5684 65.092 65.5684 64.956C65.5684 64.812 65.6164 64.696 65.7124 64.608C65.8164 64.52 65.9364 64.476 66.0724 64.476H66.7324V61.272C66.7324 61.04 66.7964 60.86 66.9244 60.732C67.0524 60.604 67.2324 60.54 67.4644 60.54H69.6004C70.5044 60.54 71.2044 60.764 71.7004 61.212C72.2044 61.652 72.4564 62.232 72.4564 62.952C72.4564 63.728 72.2044 64.336 71.7004 64.776C71.2044 65.216 70.5044 65.436 69.6004 65.436H68.2204ZM68.2084 64.476H69.2764C70.4444 64.476 71.0284 64.028 71.0284 63.132C71.0284 62.636 70.8884 62.272 70.6084 62.04C70.3364 61.808 69.9164 61.692 69.3484 61.692H68.2084V64.476Z" fill="#BEBEBE"/>
<path fill-rule="evenodd" clip-rule="evenodd" d="M17.744 43.6646C19.1068 43.6646 20.2115 44.7693 20.2115 46.132C20.2115 47.4947 19.1068 48.5995 17.744 48.5995C16.3813 48.5995 15.2766 47.4947 15.2766 46.132C15.2766 44.7693 16.3813 43.6646 17.744 43.6646ZM32.5483 43.6646C33.9111 43.6646 35.0158 44.7693 35.0158 46.132C35.0158 47.4947 33.9111 48.5995 32.5483 48.5995C31.1856 48.5995 30.0809 47.4947 30.0809 46.132C30.0809 44.7693 31.1856 43.6646 32.5483 43.6646ZM8.69453 15.7H11.9845C12.7339 15.7 13.3799 16.2047 13.5719 16.9135L13.6103 17.0948L14.408 22.2798H38.3039C39.2905 22.2798 40.0392 23.1363 39.9409 24.0899L39.9097 24.2816L37.1923 36.5101C36.7123 38.6698 34.8592 40.2335 32.6747 40.3654L32.3749 40.3744H18.0969C15.7586 40.3744 13.756 38.7367 13.2719 36.4757L13.2194 36.1899L10.5732 18.9899H8.69453C7.78604 18.9899 7.04956 18.2534 7.04956 17.3449C7.04956 16.5013 7.68458 15.806 8.50269 15.711L8.69453 15.7H11.9845H8.69453ZM36.2548 25.5699H14.9156L16.4726 35.6898C16.5865 36.4306 17.1836 36.9923 17.9134 37.0743L18.0984 37.0847H32.3764C33.0831 37.0847 33.703 36.6347 33.9302 35.98L33.9822 35.7965L36.2548 25.5699Z" fill="black"/>
<rect x="27" width="46" height="26" rx="13" fill="#EE7767"/>
<path d="M44.2558 16.5024C44.8318 16.5024 45.1198 16.7472 45.1198 17.2368C45.1198 17.7456 44.8318 18 44.2558 18H39.3886C38.803 18 38.5102 17.7456 38.5102 17.2368C38.5102 16.7472 38.803 16.5024 39.3886 16.5024H40.8862V9.936L39.5038 10.7856C39.3694 10.8624 39.2494 10.9008 39.1438 10.9008C38.9422 10.9008 38.7694 10.8144 38.6254 10.6416C38.491 10.4688 38.4238 10.2768 38.4238 10.0656C38.4238 9.7872 38.5486 9.5712 38.7982 9.4176L41.0302 8.0352C41.3182 7.8624 41.5918 7.776 41.851 7.776C42.1198 7.776 42.3358 7.8576 42.499 8.0208C42.6622 8.184 42.7438 8.4096 42.7438 8.6976V16.5024H44.2558ZM52.847 16.5024C53.423 16.5024 53.711 16.7472 53.711 17.2368C53.711 17.7456 53.423 18 52.847 18H47.375C47.1254 18 46.9286 17.928 46.7846 17.784C46.6406 17.6304 46.5686 17.4432 46.5686 17.2224C46.5686 16.9344 46.679 16.6752 46.8998 16.4448L50.183 12.9168C50.5862 12.4752 50.879 12.072 51.0614 11.7072C51.2534 11.3328 51.3494 10.9632 51.3494 10.5984C51.3494 10.1472 51.2198 9.8016 50.9606 9.5616C50.7014 9.3216 50.3318 9.2016 49.8518 9.2016C49.4582 9.2016 49.0742 9.2784 48.6998 9.432C48.335 9.576 47.9654 9.7776 47.591 10.0368C47.495 10.104 47.399 10.1616 47.303 10.2096C47.207 10.248 47.111 10.2672 47.015 10.2672C46.8518 10.2672 46.7078 10.1904 46.583 10.0368C46.4678 9.8832 46.4102 9.7008 46.4102 9.4896C46.4102 9.3456 46.4342 9.2208 46.4822 9.1152C46.5398 9.0096 46.6262 8.9088 46.7414 8.8128C47.1638 8.4768 47.6582 8.2128 48.2246 8.0208C48.791 7.8192 49.3574 7.7184 49.9238 7.7184C50.9126 7.7184 51.6998 7.968 52.2854 8.4672C52.8806 8.9664 53.1782 9.6384 53.1782 10.4832C53.1782 11.0688 53.0534 11.6208 52.8038 12.1392C52.5542 12.648 52.1318 13.2192 51.5366 13.8528L49.0454 16.5024H52.847ZM58.6442 18.1296C57.4442 18.1296 56.5274 17.688 55.8938 16.8048C55.2602 15.912 54.9434 14.616 54.9434 12.9168C54.9434 11.2272 55.2602 9.9408 55.8938 9.0576C56.5274 8.1648 57.4442 7.7184 58.6442 7.7184C59.8442 7.7184 60.761 8.1648 61.3946 9.0576C62.0282 9.9408 62.345 11.2272 62.345 12.9168C62.345 14.6064 62.0282 15.8976 61.3946 16.7904C60.761 17.6832 59.8442 18.1296 58.6442 18.1296ZM58.6442 16.6752C59.297 16.6752 59.7722 16.3776 60.0698 15.7824C60.3674 15.1776 60.5162 14.2224 60.5162 12.9168C60.5162 11.6016 60.3674 10.6512 60.0698 10.0656C59.7722 9.4704 59.297 9.1728 58.6442 9.1728C57.9914 9.1728 57.5162 9.4704 57.2186 10.0656C56.921 10.6608 56.7722 11.6112 56.7722 12.9168C56.7722 14.2224 56.921 15.1776 57.2186 15.7824C57.5162 16.3776 57.9914 16.6752 58.6442 16.6752Z" fill="white"/>
</svg>
