<svg width="35" height="29" viewBox="0 0 35 29" fill="none" xmlns="http://www.w3.org/2000/svg">
<path d="M31.4904 16.2564C31.745 17.1584 32.5681 17.7812 33.5053 17.7812H33.9062C33.958 17.7812 34 17.8232 34 17.875C34 20.9993 31.6207 23.4375 28.8235 23.4375C26.0264 23.4375 23.6471 20.9993 23.6471 17.875C23.6471 17.8232 23.689 17.7812 23.7408 17.7812H24.1417C25.079 17.7812 25.902 17.1584 26.1567 16.2564L28.0096 9.69393C28.3869 8.35784 27.383 7.03125 25.9947 7.03125H21.1992C20.2646 7.03125 19.5864 7.63883 19.228 8.21435L20.0769 8.74289L19.228 8.21435C19.0664 8.47398 18.8589 8.69279 18.6223 8.8587C18.1018 9.22367 17.5294 9.88342 17.5294 10.7873V25.5312C17.5294 26.6876 18.4668 27.625 19.6232 27.625H24.6415C24.6933 27.625 24.7353 27.667 24.7353 27.7188V27.9062C24.7353 27.958 24.6933 28 24.6415 28H10.3585C10.3067 28 10.2647 27.958 10.2647 27.9062V27.7188C10.2647 27.667 10.3067 27.625 10.3585 27.625H15.3768C16.5332 27.625 17.4706 26.6876 17.4706 25.5312V10.7873C17.4706 9.88341 16.8982 9.22367 16.3777 8.8587C16.1411 8.69278 15.9336 8.47398 15.772 8.21435C15.4136 7.63883 14.7354 7.03125 13.8008 7.03125H9.00534C7.617 7.03125 6.61312 8.35783 6.99037 9.69393L8.84331 16.2564C9.09798 17.1584 9.92105 17.7812 10.8583 17.7812H11.2592C11.311 17.7812 11.3529 17.8232 11.3529 17.875C11.3529 20.9993 8.97364 23.4375 6.17647 23.4375C3.3793 23.4375 1 20.9993 1 17.875C1 17.8232 1.04197 17.7812 1.09375 17.7812H1.49466C2.4319 17.7812 3.25496 17.1584 3.50963 16.2564L5.36258 9.69393C5.73983 8.35784 4.73594 7.03125 3.3476 7.03125H3.15257C3.1008 7.03125 3.05882 6.98928 3.05882 6.9375C3.05882 6.88572 3.1008 6.84375 3.15257 6.84375H13.8008C14.7354 6.84375 15.4136 6.23617 15.772 5.66065C15.9336 5.40102 16.1411 5.18222 16.3777 5.0163C16.8982 4.65133 17.4706 3.99159 17.4706 3.08771V1.40441C17.4706 1.39851 17.4716 1.3954 17.4725 1.39327C17.4737 1.39048 17.4758 1.387 17.4792 1.38361C17.4826 1.38023 17.4861 1.37808 17.4889 1.3769C17.491 1.376 17.4941 1.375 17.5 1.375C17.5059 1.375 17.509 1.376 17.5111 1.3769C17.5139 1.37808 17.5174 1.38023 17.5208 1.38362C17.5242 1.387 17.5263 1.39048 17.5275 1.39327C17.5284 1.3954 17.5294 1.39851 17.5294 1.40441V3.08771C17.5294 3.99159 18.1018 4.65133 18.6223 5.01629C18.8589 5.18222 19.0664 5.40102 19.228 5.66065C19.5864 6.23617 20.2646 6.84375 21.1992 6.84375H31.8474C31.8992 6.84375 31.9412 6.88572 31.9412 6.9375C31.9412 6.98928 31.8992 7.03125 31.8474 7.03125H31.6524C30.2641 7.03125 29.2602 8.35784 29.6374 9.69393L31.4904 16.2564Z" stroke="black" stroke-width="2"/>
<rect x="11" y="27" width="13" height="1" fill="black"/>
<circle cx="17" cy="7" r="2" fill="black"/>
</svg>
