<svg width="22" height="24" viewBox="0 0 22 24" fill="none" xmlns="http://www.w3.org/2000/svg">
<path d="M17.3775 9.13582C17.3775 13.5505 13.7509 17.1526 9.24829 17.1526C4.74569 17.1526 1.11906 13.5505 1.11906 9.13582C1.11906 4.72116 4.74569 1.11906 9.24829 1.11906C13.7509 1.11906 17.3775 4.72116 17.3775 9.13582Z" stroke="#C9C9C9" stroke-width="2.23812"/>
<mask id="path-2-inside-1" fill="white">
<path fill-rule="evenodd" clip-rule="evenodd" d="M13.5787 16.1972L20.1742 23.5648L21.907 21.8531L15.3971 14.5809L13.5787 16.1972Z"/>
</mask>
<path fill-rule="evenodd" clip-rule="evenodd" d="M13.5787 16.1972L20.1742 23.5648L21.907 21.8531L15.3971 14.5809L13.5787 16.1972Z" fill="#C9C9C9"/>
<path d="M13.5787 16.1972L12.8353 15.3608L11.9959 16.1069L12.745 16.9436L13.5787 16.1972ZM20.1742 23.5648L19.3404 24.3112L20.1244 25.187L20.9606 24.361L20.1742 23.5648ZM21.907 21.8531L22.6935 22.6492L23.4514 21.9005L22.7408 21.1067L21.907 21.8531ZM15.3971 14.5809L16.2308 13.8345L15.4871 13.0037L14.6536 13.7445L15.3971 14.5809ZM12.745 16.9436L19.3404 24.3112L21.008 22.8185L14.4125 15.4508L12.745 16.9436ZM20.9606 24.361L22.6935 22.6492L21.1206 21.057L19.3877 22.7687L20.9606 24.361ZM22.7408 21.1067L16.2308 13.8345L14.5633 15.3273L21.0732 22.5995L22.7408 21.1067ZM14.3222 17.0336L16.1405 15.4173L14.6536 13.7445L12.8353 15.3608L14.3222 17.0336Z" fill="#C9C9C9" mask="url(#path-2-inside-1)"/>
</svg>
