<svg width="14" height="14" viewBox="0 0 14 14" fill="none" xmlns="http://www.w3.org/2000/svg">
<path d="M9.42513 0.9H4.57486C2.54845 0.9 0.9 2.54845 0.9 4.57486V9.42513C0.9 11.4516 2.54845 13.1 4.57486 13.1H9.42513C11.4516 13.1 13.1 11.4516 13.1 9.42513V4.57486C13.1 2.54845 11.4515 0.9 9.42513 0.9ZM11.6928 9.42513C11.6928 10.6775 10.6775 11.6928 9.42513 11.6928H4.57486C3.32248 11.6928 2.3072 10.6775 2.3072 9.42513V4.57486C2.3072 3.32246 3.32248 2.3072 4.57486 2.3072H9.42513C10.6775 2.3072 11.6928 3.32246 11.6928 4.57486V9.42513Z" fill="white" stroke="white" stroke-width="0.2"/>
<path d="M6.99913 3.89697C5.28779 3.89697 3.89551 5.28926 3.89551 7.00058C3.89551 8.7119 5.28779 10.1042 6.99913 10.1042C8.71048 10.1042 10.1028 8.71192 10.1028 7.00058C10.1028 5.28923 8.71048 3.89697 6.99913 3.89697ZM6.99913 8.89703C5.95176 8.89703 5.10271 8.04797 5.10271 7.0006C5.10271 5.95322 5.95178 5.10417 6.99913 5.10417C8.04651 5.10417 8.89556 5.95322 8.89556 7.0006C8.89556 8.04795 8.04649 8.89703 6.99913 8.89703Z" fill="white"/>
<path d="M10.1099 4.66463C10.5206 4.66463 10.8536 4.33167 10.8536 3.92094C10.8536 3.51021 10.5206 3.17725 10.1099 3.17725C9.69917 3.17725 9.36621 3.51021 9.36621 3.92094C9.36621 4.33167 9.69917 4.66463 10.1099 4.66463Z" fill="white"/>
</svg>
