<svg width="21" height="20" viewBox="0 0 21 20" fill="none" xmlns="http://www.w3.org/2000/svg">
<path d="M18.6174 2.53968L18.6177 2.53994C20.7824 4.87304 20.7824 8.47897 18.6177 10.8121L18.6162 10.8137L11.086 18.7519L18.6174 2.53968ZM18.6174 2.53968C17.5865 1.43243 16.1421 0.802447 14.6287 0.800111L14.6282 0.800112C13.1139 0.801863 11.6682 1.43128 10.6358 2.53835C10.6356 2.53853 10.6355 2.53872 10.6353 2.5389L10.4426 2.74237L10.2501 2.5391C10.2499 2.53888 10.2497 2.53867 10.2495 2.53845C8.20061 0.335579 4.75265 0.209275 2.54785 2.25639L2.54782 2.25642C2.45015 2.34714 2.35579 2.44139 2.26494 2.5391L2.2648 2.53926C0.0999832 4.8726 0.0999832 8.47873 2.2648 10.8121L2.26479 10.8121L2.26634 10.8137L9.79929 18.752C10.1358 19.107 10.6966 19.1223 11.0519 18.786L18.6174 2.53968ZM17.375 9.54921L17.3324 9.59417L10.4426 16.8558L3.55372 9.59582C3.55347 9.59554 3.55321 9.59527 3.55296 9.595C2.02546 7.94742 2.02571 5.40212 3.55372 3.75483L3.55403 3.75449C4.9316 2.2625 7.25883 2.16893 8.75192 3.54553C8.82441 3.61236 8.89415 3.68206 8.96104 3.7545L8.96102 3.75451L8.96288 3.75646L9.79933 4.63828L9.79927 4.63834L9.80352 4.64257C10.1572 4.99369 10.7281 4.99369 11.0817 4.64257L11.0818 4.64263L11.0858 4.63834L11.9223 3.7572L11.9223 3.75721L11.9242 3.75518C13.3018 2.26318 15.629 2.16961 17.1221 3.54621C17.1946 3.61304 17.2643 3.68274 17.3312 3.75518L17.332 3.75603C18.8603 5.39199 18.8839 7.90985 17.375 9.54921Z" fill="black" stroke="black" stroke-width="0.4"/>
</svg>
