<svg width="23" height="25" viewBox="0 0 23 25" fill="none" xmlns="http://www.w3.org/2000/svg">
<path fill-rule="evenodd" clip-rule="evenodd" d="M11.25 0C17.4632 0 22.5 4.98216 22.5 11.128C22.5 15.1948 19.0971 19.4947 12.4353 24.1789L11.25 25L10.5347 24.5064C3.56302 19.6949 0 15.2894 0 11.128C0 4.98216 5.0368 0 11.25 0ZM11.25 2.47314C6.41751 2.47314 2.5 6.34815 2.5 11.1282C2.5 14.1313 5.3709 17.7958 11.25 21.9776C17.1291 17.7958 20 14.1313 20 11.1282C20 6.34815 16.0825 2.47314 11.25 2.47314ZM11.25 5C14.0114 5 16.25 7.23858 16.25 10C16.25 12.7614 14.0114 15 11.25 15C8.48858 15 6.25 12.7614 6.25 10C6.25 7.23858 8.48858 5 11.25 5ZM11.25 7.5C9.86929 7.5 8.75 8.61929 8.75 10C8.75 11.3807 9.86929 12.5 11.25 12.5C12.6307 12.5 13.75 11.3807 13.75 10C13.75 8.61929 12.6307 7.5 11.25 7.5Z" fill="black"/>
</svg>
