<svg width="295" height="45" viewBox="0 0 295 45" fill="none" xmlns="http://www.w3.org/2000/svg">
<g clip-path="url(#clip0)">
<path fill-rule="evenodd" clip-rule="evenodd" d="M39.1701 20.6039L30.5965 13.4024H19.0809L14.3738 9.36157L4.41321 9.44159L15.1723 20.6039H39.1701Z" fill="#1365A1"/>
<path fill-rule="evenodd" clip-rule="evenodd" d="M39.212 22.244L31.0587 29.0054L19.2909 29.0854L14.836 33.4863L4.41309 33.4063L15.1722 22.244H39.212Z" fill="#777370"/>
<path fill-rule="evenodd" clip-rule="evenodd" d="M17.2734 20.2836C15.2561 20.2836 13.617 18.7233 13.617 16.8029C13.617 14.8825 15.2561 13.3221 17.2734 13.3221C19.2907 13.3221 20.9298 14.8825 20.9298 16.8029C20.9298 18.7233 19.2907 20.2836 17.2734 20.2836Z" fill="white"/>
<path fill-rule="evenodd" clip-rule="evenodd" d="M21.14 36.0476C19.1227 36.0476 17.4836 34.4873 17.4836 32.5669C17.4836 30.6465 19.1227 29.0862 21.14 29.0862C23.1573 29.0862 24.7964 30.6465 24.7964 32.5669C24.7964 34.4873 23.1573 36.0476 21.14 36.0476Z" fill="#1365A1"/>
<path d="M40.7669 3.12083V39.2083H2.85789V3.12083H40.7669ZM43.6248 0.400269H0V41.9288H43.6248V0.400269Z" fill="#1365A1"/>
<path d="M67.2599 5.64135H58.308V24.7653H52.4662V0.400269H73.1018V24.7653H67.2599V5.64135Z" fill="#1365A1"/>
<path d="M79.7002 24.7654V0.400329C81.1291 0.400329 85.5421 0.320312 87.5174 0.320312C95.2925 0.320312 97.8562 4.20111 97.8562 8.40198C97.8562 12.7629 94.3259 16.5637 88.3999 16.5637C87.8536 16.5637 86.4667 16.5637 85.542 16.4436V24.7253H79.7002V24.7654ZM85.542 5.64141V11.2026C86.3826 11.3226 87.3492 11.3626 88.1898 11.3626C89.7448 11.3626 91.6361 10.7225 91.6361 8.36197C91.6361 6.20152 90.1651 5.56139 88.1057 5.56139C87.3492 5.56139 86.7609 5.6014 85.542 5.64141Z" fill="#1365A1"/>
<path d="M114.374 0C122.149 0 127.991 4.841 127.991 12.6026C127.991 19.9641 122.191 25.2052 114.374 25.2052C106.598 25.2052 100.757 20.3642 100.757 12.6026C100.799 5.52114 106.22 0 114.374 0ZM114.374 19.9641C119.249 19.9641 121.77 16.6834 121.77 12.6026C121.77 8.16168 118.534 5.24108 114.374 5.24108C110.129 5.24108 106.977 8.16168 106.977 12.6026C106.977 16.7635 110.297 19.9641 114.374 19.9641Z" fill="#1365A1"/>
<path d="M132.74 0.400269H138.581V11.0025L146.945 0.400269H153.964L144.339 11.6426L154.72 24.7653H147.281L138.539 13.1629V24.7653H132.698V0.400269H132.74Z" fill="#1365A1"/>
<path d="M168.462 0C176.237 0 182.079 4.841 182.079 12.6026C182.079 19.9641 176.279 25.2052 168.462 25.2052C160.687 25.2052 154.845 20.3642 154.845 12.6026C154.887 5.52114 160.309 0 168.462 0ZM168.462 19.9641C173.337 19.9641 175.859 16.6834 175.859 12.6026C175.859 8.16168 172.623 5.24108 168.462 5.24108C164.217 5.24108 161.065 8.16168 161.065 12.6026C161.107 16.7635 164.386 19.9641 168.462 19.9641Z" fill="#1365A1"/>
<path d="M202.001 14.9633H192.671V24.7653H186.829V0.400269H192.671V9.72219H202.001V0.400269H207.843V24.7653H202.001V14.9633Z" fill="#1365A1"/>
<path d="M234.363 22.3646C232.808 24.0049 229.488 25.1652 226.041 25.1652C218.098 25.1652 212.635 20.1642 212.635 12.5626C212.592 5.60115 217.173 0 225.999 0C229.404 0 232.303 1.12023 233.816 2.52052L231.211 6.72138C229.824 5.92122 228.395 5.24108 225.999 5.24108C222.049 5.24108 218.855 7.80161 218.855 12.6026C218.855 16.9235 222.007 19.9641 226.588 19.9641C228.395 19.9641 230.412 19.404 232.135 18.2037L234.363 22.3646Z" fill="#1365A1"/>
<path d="M238.355 24.7653V0.400269H244.239V15.5234L255.586 0.400269H260.713V24.7653H254.872V9.64217L243.524 24.7653H238.355Z" fill="#1365A1"/>
<path d="M267.27 0.400269H273.154L281.055 10.6824L288.494 0.400269H294V24.7653H288.158V9.24209L281.013 18.724H280.173L273.07 9.32211V24.7253H267.228V0.400269H267.27Z" fill="#1365A1"/>
<path d="M58.9801 35.6867H56.4585V41.888H55.1556V35.6867H52.676V34.6865H58.9801V35.6867Z" fill="#525252"/>
<path d="M69.1921 38.3674C69.1921 39.4477 68.9399 40.3278 68.3936 41.008C67.8472 41.6881 67.1748 42.0082 66.2502 42.0082C65.3256 42.0082 64.6111 41.7281 64.1067 41.168V44.6087H62.8039V34.6867H63.9807L64.0227 35.4868C64.527 34.8867 65.2835 34.5667 66.2081 34.5667C67.1327 34.5667 67.8472 34.8867 68.3515 35.5268C68.8979 36.167 69.1501 37.0872 69.1501 38.2474V38.3674H69.1921ZM67.8892 38.2074C67.8892 37.4072 67.7211 36.7671 67.3429 36.287C66.9646 35.8069 66.5023 35.5669 65.8299 35.5669C65.0314 35.5669 64.443 35.8869 64.0647 36.5671V40.0078C64.443 40.6479 65.0314 41.008 65.8299 41.008C66.4603 41.008 66.9226 40.7679 67.3009 40.2878C67.7211 39.8477 67.8892 39.1276 67.8892 38.2074Z" fill="#525252"/>
<path d="M75.791 40.0876L77.5562 34.6865H78.9431L75.9171 42.9682C75.4548 44.1685 74.6983 44.7686 73.6897 44.7686H73.4375L72.9752 44.6886V43.6884L73.3114 43.7284C73.7317 43.7284 74.1099 43.6484 74.3201 43.4883C74.5722 43.3283 74.7824 43.0082 74.9085 42.5682L75.2027 41.848L72.5129 34.7265H73.9418L75.791 40.0876Z" fill="#525252"/>
<path d="M85.9612 35.0868C86.9279 35.0868 87.6844 35.4068 88.2307 36.007C88.8191 36.6071 89.0713 37.4072 89.0713 38.4074V38.5275C89.0713 39.2076 88.9452 39.8077 88.651 40.3278C88.3568 40.848 87.9786 41.288 87.4742 41.5681C86.9699 41.8482 86.3815 42.0082 85.7091 42.0082C84.7004 42.0082 83.8599 41.6881 83.2715 41.048C82.6411 40.4079 82.3469 39.5277 82.3469 38.4475V37.8473C82.3469 36.327 82.6411 35.1268 83.2294 34.2466C83.8178 33.3664 84.7004 32.8063 85.8352 32.6063C86.4656 32.4862 86.9279 32.3662 87.138 32.2062C87.3481 32.0461 87.4742 31.8461 87.4742 31.566H88.5249C88.5249 32.1262 88.3988 32.5662 88.1467 32.8463C87.8945 33.1664 87.4742 33.3664 86.8858 33.4864L85.9192 33.6865C85.1627 33.8465 84.5743 34.1666 84.1961 34.5667C83.8178 34.9667 83.5657 35.5269 83.4396 36.207C84.154 35.4868 84.9946 35.0868 85.9612 35.0868ZM85.7091 36.127C85.0787 36.127 84.5743 36.327 84.1961 36.7271C83.8178 37.1272 83.6497 37.6873 83.6497 38.4074V38.5275C83.6497 39.2876 83.8178 39.9278 84.1961 40.3679C84.5743 40.8079 85.0787 41.048 85.7091 41.048C86.3395 41.048 86.8438 40.8079 87.2221 40.3679C87.6003 39.9278 87.7684 39.2476 87.7684 38.4074C87.7684 37.7273 87.6003 37.1672 87.2221 36.7671C86.8858 36.327 86.3815 36.127 85.7091 36.127Z" fill="#525252"/>
<path d="M92.8127 38.2074C92.8127 37.4873 92.9388 36.8871 93.233 36.327C93.5272 35.7669 93.9475 35.3268 94.4518 35.0067C94.9561 34.6867 95.5445 34.5667 96.217 34.5667C97.2256 34.5667 98.0662 34.8867 98.6966 35.5669C99.327 36.247 99.6632 37.1272 99.6632 38.2874V38.3674C99.6632 39.0476 99.5372 39.6877 99.243 40.2478C98.9488 40.8079 98.5705 41.248 98.0242 41.5281C97.5198 41.8481 96.8894 42.0082 96.217 42.0082C95.2083 42.0082 94.3677 41.6881 93.7373 41.008C93.1069 40.3278 92.7707 39.4477 92.7707 38.3274V38.2074H92.8127ZM94.0735 38.3674C94.0735 39.1676 94.2837 39.8077 94.6619 40.2878C95.0402 40.7679 95.5866 41.008 96.217 41.008C96.8894 41.008 97.3937 40.7679 97.772 40.2878C98.1502 39.8077 98.3604 39.1276 98.3604 38.2474C98.3604 37.4472 98.1502 36.8071 97.772 36.327C97.3937 35.8469 96.8474 35.6069 96.217 35.6069C95.5866 35.6069 95.0822 35.8469 94.6619 36.327C94.2837 36.7671 94.0735 37.4472 94.0735 38.3674Z" fill="#525252"/>
<path d="M110.043 41.888H108.741V35.7267H105.252V41.888H103.949V34.6865H110.001V41.888H110.043Z" fill="#525252"/>
<path d="M121.055 38.3674C121.055 39.4477 120.803 40.3278 120.257 41.008C119.753 41.6881 119.038 42.0082 118.113 42.0082C117.189 42.0082 116.474 41.7281 115.97 41.168V44.6087H114.667V34.6867H115.844L115.928 35.4868C116.432 34.8867 117.189 34.5667 118.113 34.5667C119.038 34.5667 119.753 34.8867 120.257 35.5268C120.803 36.167 121.055 37.0872 121.055 38.2474V38.3674ZM119.753 38.2074C119.753 37.4072 119.584 36.7671 119.206 36.287C118.828 35.8069 118.366 35.5669 117.693 35.5669C116.895 35.5669 116.306 35.8869 115.928 36.5671V40.0078C116.306 40.6479 116.895 41.008 117.693 41.008C118.324 41.008 118.786 40.7679 119.164 40.2878C119.584 39.8477 119.753 39.1276 119.753 38.2074Z" fill="#525252"/>
<path d="M124.921 38.2074C124.921 37.4873 125.047 36.8871 125.341 36.327C125.636 35.7669 126.056 35.3268 126.56 35.0067C127.065 34.6867 127.653 34.5667 128.325 34.5667C129.334 34.5667 130.175 34.8867 130.805 35.5669C131.435 36.247 131.772 37.1272 131.772 38.2874V38.3674C131.772 39.0476 131.646 39.6877 131.351 40.2478C131.057 40.8079 130.679 41.248 130.133 41.5281C129.628 41.8481 128.998 42.0082 128.325 42.0082C127.317 42.0082 126.476 41.6881 125.846 41.008C125.215 40.3278 124.879 39.4477 124.879 38.3274V38.2074H124.921ZM126.224 38.3674C126.224 39.1676 126.434 39.8077 126.812 40.2878C127.191 40.7679 127.737 41.008 128.367 41.008C129.04 41.008 129.544 40.7679 129.922 40.2878C130.301 39.8077 130.511 39.1276 130.511 38.2474C130.511 37.4472 130.301 36.8071 129.922 36.327C129.544 35.8469 128.998 35.6069 128.367 35.6069C127.737 35.6069 127.233 35.8469 126.812 36.327C126.434 36.7671 126.224 37.4472 126.224 38.3674Z" fill="#525252"/>
<path d="M136.101 41.888V34.6865H139.043C140.051 34.6865 140.808 34.8466 141.354 35.2066C141.901 35.5267 142.153 36.0468 142.153 36.6869C142.153 37.007 142.069 37.3271 141.859 37.5671C141.648 37.8472 141.354 38.0472 140.934 38.1672C141.396 38.2873 141.775 38.4873 142.027 38.7674C142.321 39.0474 142.447 39.4075 142.447 39.8476C142.447 40.4877 142.195 41.0078 141.69 41.3679C141.186 41.728 140.472 41.888 139.547 41.888H136.101ZM137.404 37.7272H139.085C140.304 37.7272 140.892 37.4071 140.892 36.7269C140.892 36.0468 140.304 35.6867 139.169 35.6867H137.404V37.7272ZM137.404 38.7274V40.8878H139.547C140.093 40.8878 140.472 40.8078 140.766 40.6077C141.018 40.4077 141.186 40.1677 141.186 39.8076C141.186 39.0874 140.64 38.7274 139.505 38.7274H137.404Z" fill="#525252"/>
<path d="M146.398 38.2074C146.398 37.4873 146.524 36.8871 146.818 36.327C147.112 35.7669 147.532 35.3268 148.037 35.0067C148.541 34.6867 149.129 34.5667 149.802 34.5667C150.811 34.5667 151.651 34.8867 152.282 35.5669C152.912 36.247 153.248 37.1272 153.248 38.2874V38.3674C153.248 39.0476 153.122 39.6877 152.828 40.2478C152.534 40.8079 152.155 41.248 151.609 41.5281C151.105 41.8481 150.474 42.0082 149.802 42.0082C148.793 42.0082 147.953 41.6881 147.322 41.008C146.692 40.3278 146.356 39.4477 146.356 38.3274V38.2074H146.398ZM147.659 38.3674C147.659 39.1676 147.869 39.8077 148.247 40.2878C148.625 40.7679 149.172 41.008 149.802 41.008C150.474 41.008 150.979 40.7679 151.357 40.2878C151.735 39.8077 151.945 39.1276 151.945 38.2474C151.945 37.4472 151.735 36.8071 151.357 36.327C150.979 35.8469 150.432 35.6069 149.802 35.6069C149.172 35.6069 148.667 35.8469 148.247 36.327C147.869 36.7671 147.659 37.4472 147.659 38.3674Z" fill="#525252"/>
<path d="M156.863 40.8878L157.325 40.3677C157.83 39.7676 158.124 38.8074 158.166 37.5671L158.292 34.6865H163.167V40.8878H164.134V44.0084H162.831V41.888H157.577V44.0084H156.275V40.8878H156.863ZM158.418 40.8878H161.906V35.8068H159.595L159.511 37.5271C159.385 38.9674 159.048 40.0876 158.418 40.8878Z" fill="#525252"/>
<path d="M174.304 41.888H173.001V38.8074H169.513V41.888H168.21V34.6865H169.513V37.8072H173.001V34.6865H174.304V41.888Z" fill="#525252"/>
<path d="M183.592 41.8884C183.508 41.7283 183.466 41.4883 183.424 41.1282C182.836 41.7283 182.121 42.0084 181.281 42.0084C180.524 42.0084 179.936 41.8083 179.431 41.4083C178.969 41.0082 178.717 40.4881 178.717 39.8879C178.717 39.1278 179.011 38.5677 179.6 38.1276C180.188 37.7275 181.029 37.4874 182.121 37.4874H183.382V36.9273C183.382 36.4872 183.256 36.1672 182.962 35.8871C182.71 35.6471 182.289 35.487 181.785 35.487C181.323 35.487 180.944 35.607 180.608 35.8071C180.314 36.0471 180.146 36.2872 180.146 36.6073H178.843C178.843 36.2472 178.969 35.8871 179.263 35.567C179.516 35.247 179.894 34.9669 180.356 34.7669C180.818 34.5668 181.323 34.4868 181.869 34.4868C182.752 34.4868 183.424 34.6869 183.928 35.127C184.433 35.527 184.685 36.1272 184.685 36.8473V40.168C184.685 40.8081 184.769 41.3682 184.937 41.7283V41.8483H183.592V41.8884ZM181.449 40.9282C181.869 40.9282 182.247 40.8481 182.584 40.6481C182.962 40.4481 183.214 40.208 183.382 39.8879V38.4076H182.373C180.776 38.4076 180.02 38.8477 180.02 39.7279C180.02 40.128 180.146 40.408 180.44 40.6481C180.692 40.8481 181.029 40.9282 181.449 40.9282Z" fill="#525252"/>
<path d="M195.065 34.6866V41.8881H193.762V39.0875H191.829L190.064 41.8881H188.677L190.568 38.8875C190.064 38.7274 189.728 38.4474 189.475 38.0873C189.223 37.7272 189.097 37.3272 189.097 36.8471C189.097 36.2069 189.349 35.6468 189.854 35.2467C190.358 34.8466 191.073 34.6466 191.913 34.6466H195.065V34.6866ZM190.358 36.8871C190.358 37.2471 190.484 37.5272 190.736 37.7272C190.988 37.9273 191.325 38.0473 191.745 38.0473H193.804V35.6468H191.955C191.493 35.6468 191.115 35.7668 190.82 35.9669C190.484 36.2469 190.358 36.527 190.358 36.8871Z" fill="#525252"/>
<path d="M218.181 41.8884C218.097 41.7283 218.055 41.4883 218.013 41.1282C217.425 41.7283 216.71 42.0084 215.87 42.0084C215.113 42.0084 214.525 41.8083 214.02 41.4083C213.558 41.0082 213.306 40.4881 213.306 39.8879C213.306 39.1278 213.6 38.5677 214.188 38.1276C214.777 37.7275 215.617 37.4874 216.71 37.4874H217.971V36.9273C217.971 36.4872 217.845 36.1672 217.551 35.8871C217.298 35.6471 216.878 35.487 216.374 35.487C215.912 35.487 215.533 35.607 215.197 35.8071C214.903 36.0471 214.735 36.2872 214.735 36.6073H213.432C213.432 36.2472 213.558 35.8871 213.852 35.567C214.104 35.247 214.483 34.9669 214.945 34.7669C215.407 34.5668 215.912 34.4868 216.458 34.4868C217.341 34.4868 218.013 34.6869 218.517 35.127C219.022 35.527 219.274 36.1272 219.274 36.8473V40.168C219.274 40.8081 219.358 41.3682 219.526 41.7283V41.8483H218.181V41.8884ZM216.038 40.9282C216.458 40.9282 216.836 40.8481 217.172 40.6481C217.551 40.4481 217.803 40.208 217.971 39.8879V38.4076H216.962C215.365 38.4076 214.609 38.8477 214.609 39.7279C214.609 40.128 214.735 40.408 215.029 40.6481C215.239 40.8481 215.575 40.9282 216.038 40.9282Z" fill="#525252"/>
<path d="M230.244 38.3674C230.244 39.4477 229.992 40.3278 229.445 41.008C228.899 41.6881 228.227 42.0082 227.302 42.0082C226.377 42.0082 225.663 41.7281 225.158 41.168V44.6087H223.856V34.6867H225.032L225.074 35.4868C225.621 34.8867 226.335 34.5667 227.26 34.5667C228.184 34.5667 228.899 34.8867 229.403 35.5268C229.95 36.167 230.202 37.0872 230.202 38.2474V38.3674H230.244ZM228.941 38.2074C228.941 37.4072 228.773 36.7671 228.395 36.287C228.016 35.8069 227.554 35.5669 226.882 35.5669C226.083 35.5669 225.495 35.8869 225.116 36.5671V40.0078C225.495 40.6479 226.083 41.008 226.882 41.008C227.512 41.008 227.974 40.7679 228.353 40.2878C228.731 39.8477 228.941 39.1276 228.941 38.2074Z" fill="#525252"/>
<path d="M238.774 40.2478L241.338 34.6866H242.935V41.8881H241.632V36.647L239.195 41.8881H238.354L235.832 36.527V41.8481H234.571V34.6466H236.253L238.774 40.2478Z" fill="#525252"/>
<path d="M252.266 41.8884C252.182 41.7283 252.14 41.4883 252.098 41.1282C251.51 41.7283 250.795 42.0084 249.955 42.0084C249.198 42.0084 248.61 41.8083 248.105 41.4083C247.643 41.0082 247.391 40.4881 247.391 39.8879C247.391 39.1278 247.685 38.5677 248.273 38.1276C248.862 37.7275 249.702 37.4874 250.795 37.4874H252.056V36.9273C252.056 36.4872 251.93 36.1672 251.636 35.8871C251.383 35.6471 250.963 35.487 250.459 35.487C249.997 35.487 249.618 35.607 249.282 35.8071C248.988 36.0471 248.82 36.2872 248.82 36.6073H247.517C247.517 36.2472 247.643 35.8871 247.937 35.567C248.189 35.247 248.568 34.9669 249.03 34.7669C249.492 34.5668 249.997 34.4868 250.543 34.4868C251.426 34.4868 252.098 34.6869 252.602 35.127C253.107 35.527 253.359 36.1272 253.359 36.8473V40.168C253.359 40.8081 253.443 41.3682 253.611 41.7283V41.8483H252.266V41.8884ZM250.123 40.9282C250.543 40.9282 250.921 40.8481 251.257 40.6481C251.636 40.4481 251.888 40.208 252.056 39.8879V38.4076H251.047C249.45 38.4076 248.694 38.8477 248.694 39.7279C248.694 40.128 248.82 40.408 249.114 40.6481C249.366 40.8481 249.702 40.9282 250.123 40.9282Z" fill="#525252"/>
<path d="M263.445 35.6867H260.923V41.888H259.62V35.6867H257.141V34.6865H263.445V35.6867Z" fill="#525252"/>
<path d="M269.833 40.0876L271.598 34.6865H272.985L269.959 42.9682C269.497 44.1685 268.74 44.7686 267.732 44.7686H267.48L267.017 44.6886V43.6884L267.353 43.7284C267.774 43.7284 268.152 43.6484 268.362 43.4883C268.614 43.3283 268.824 43.0082 268.95 42.5682L269.245 41.848L266.513 34.6865H267.942L269.833 40.0876Z" fill="#525252"/>
<path d="M283.072 38.3674C283.072 39.4477 282.82 40.3278 282.273 41.008C281.727 41.6881 281.055 42.0082 280.13 42.0082C279.205 42.0082 278.491 41.7281 277.987 41.168V44.6087H276.684V34.6867H277.861L277.903 35.4868C278.449 34.8867 279.163 34.5667 280.088 34.5667C281.013 34.5667 281.727 34.8867 282.231 35.5268C282.778 36.167 283.03 37.0872 283.03 38.2474V38.3674H283.072ZM281.769 38.2074C281.769 37.4072 281.601 36.7671 281.223 36.287C280.845 35.8069 280.382 35.5669 279.71 35.5669C278.911 35.5669 278.323 35.8869 277.945 36.5671V40.0078C278.323 40.6479 278.911 41.008 279.71 41.008C280.34 41.008 280.802 40.7679 281.181 40.2878C281.601 39.8477 281.769 39.1276 281.769 38.2074Z" fill="#525252"/>
<path d="M291.94 41.8884C291.856 41.7283 291.814 41.4883 291.772 41.1282C291.183 41.7283 290.469 42.0084 289.628 42.0084C288.872 42.0084 288.283 41.8083 287.779 41.4083C287.317 41.0082 287.065 40.4881 287.065 39.8879C287.065 39.1278 287.359 38.5677 287.947 38.1276C288.536 37.7275 289.376 37.4874 290.469 37.4874H291.73V36.9273C291.73 36.4872 291.604 36.1672 291.309 35.8871C291.057 35.6471 290.637 35.487 290.133 35.487C289.67 35.487 289.292 35.607 288.956 35.8071C288.662 36.0471 288.494 36.2872 288.494 36.6073H287.191C287.191 36.2472 287.317 35.8871 287.611 35.567C287.863 35.247 288.241 34.9669 288.704 34.7669C289.166 34.5668 289.67 34.4868 290.217 34.4868C291.099 34.4868 291.772 34.6869 292.276 35.127C292.78 35.527 293.033 36.1272 293.033 36.8473V40.168C293.033 40.8081 293.117 41.3682 293.285 41.7283V41.8483H291.94V41.8884ZM289.796 40.9282C290.217 40.9282 290.595 40.8481 290.931 40.6481C291.309 40.4481 291.562 40.208 291.73 39.8879V38.4076H290.721C289.124 38.4076 288.367 38.8477 288.367 39.7279C288.367 40.128 288.494 40.408 288.788 40.6481C289.04 40.8481 289.376 40.9282 289.796 40.9282Z" fill="#525252"/>
</g>
<defs>
<clipPath id="clip0">
<rect width="295" height="45" fill="white"/>
</clipPath>
</defs>
</svg>
