<svg width="26" height="26" viewBox="0 0 26 26" fill="none" xmlns="http://www.w3.org/2000/svg">
<path d="M22.7753 25.1327L22.7819 25.1394L22.7891 25.1456C22.9125 25.2516 23.1636 25.4248 23.48 25.4859C23.8126 25.5502 24.2041 25.4865 24.5579 25.1327C24.8846 24.806 24.9235 24.3966 24.8646 24.0683C24.8077 23.7512 24.6529 23.4654 24.5191 23.3316L17.8904 16.7029C19.1678 15.0502 19.9319 12.9805 19.9319 10.734C19.9319 5.33957 15.5435 0.951172 10.149 0.951172C4.75456 0.951172 0.366211 5.33957 0.366211 10.734C0.366211 16.1285 4.75461 20.5169 10.1491 20.5169C12.3955 20.5169 14.4653 19.7528 16.1179 18.4754L22.7753 25.1327ZM10.1491 18.01C6.13711 18.01 2.87314 14.746 2.87314 10.734C2.87314 6.72207 6.13711 3.4581 10.1491 3.4581C14.161 3.4581 17.425 6.72207 17.425 10.734C17.425 14.746 14.161 18.01 10.1491 18.01Z" fill="white" stroke="white" stroke-width="0.5"/>
</svg>
