<svg width="26" height="21" viewBox="0 0 26 21" fill="none" xmlns="http://www.w3.org/2000/svg">
<path d="M23.0741 11.6164C23.2604 12.2761 23.8624 12.7317 24.5479 12.7317H24.8411C24.879 12.7317 24.9097 12.7624 24.9097 12.8002C24.9097 15.0854 23.1694 16.8688 21.1235 16.8688C19.0776 16.8688 17.3373 15.0854 17.3373 12.8002C17.3373 12.7624 17.368 12.7317 17.4058 12.7317H17.6991C18.3846 12.7317 18.9866 12.2761 19.1729 11.6164L20.5282 6.81638C20.8041 5.83912 20.0698 4.86882 19.0544 4.86882H15.5468C14.8632 4.86882 14.3672 5.31322 14.1051 5.73417C13.9868 5.92407 13.8351 6.08411 13.662 6.20547C13.2813 6.47241 12.8627 6.95497 12.8627 7.61609V18.4002C12.8627 19.246 13.5483 19.9317 14.3941 19.9317H18.0647C18.1025 19.9317 18.1332 19.9624 18.1332 20.0002V20.1374C18.1332 20.1753 18.1025 20.206 18.0647 20.206H7.61761C7.57974 20.206 7.54904 20.1753 7.54904 20.1374V20.0002C7.54904 19.9624 7.57974 19.9317 7.61761 19.9317H11.2882C12.134 19.9317 12.8196 19.246 12.8196 18.4002V7.61609C12.8196 6.95497 12.401 6.47241 12.0203 6.20547C11.8472 6.08411 11.6954 5.92407 11.5772 5.73417C11.3151 5.31322 10.8191 4.86882 10.1355 4.86882H6.6279C5.61243 4.86882 4.87816 5.83912 5.15409 6.81638L6.50939 11.6164C6.69566 12.2761 7.29767 12.7317 7.98319 12.7317H8.27643C8.3143 12.7317 8.345 12.7624 8.345 12.8002C8.345 15.0854 6.60472 16.8688 4.55878 16.8688C2.51285 16.8688 0.772566 15.0854 0.772566 12.8002C0.772566 12.7624 0.803267 12.7317 0.841138 12.7317H1.13438C1.8199 12.7317 2.42191 12.2761 2.60818 11.6164L3.96348 6.81638C4.23941 5.83912 3.50514 4.86882 2.48967 4.86882H2.34702C2.30915 4.86882 2.27845 4.83812 2.27845 4.80024C2.27845 4.76237 2.30915 4.73167 2.34702 4.73167H10.1355C10.8191 4.73167 11.3151 4.28727 11.5772 3.86632C11.6954 3.67642 11.8472 3.51638 12.0203 3.39502C12.401 3.12807 12.8196 2.64552 12.8196 1.9844V0.753185C12.8196 0.748866 12.8204 0.746593 12.821 0.745036C12.8219 0.742992 12.8234 0.740452 12.8259 0.737974C12.8284 0.735496 12.8309 0.733928 12.833 0.733063C12.8345 0.732404 12.8368 0.731673 12.8411 0.731673C12.8455 0.731673 12.8477 0.732404 12.8493 0.733063C12.8513 0.733928 12.8539 0.735496 12.8563 0.737974C12.8588 0.740452 12.8604 0.742992 12.8613 0.745037C12.8619 0.746594 12.8627 0.748867 12.8627 0.753186V1.9844C12.8627 2.64552 13.2813 3.12807 13.662 3.39502C13.8351 3.51638 13.9868 3.67642 14.1051 3.86632C14.3672 4.28727 14.8632 4.73167 15.5468 4.73167H23.3353C23.3731 4.73167 23.4038 4.76237 23.4038 4.80024C23.4038 4.83812 23.3731 4.86882 23.3353 4.86882H23.1926C22.1771 4.86882 21.4429 5.83912 21.7188 6.81638L23.0741 11.6164Z" stroke="black" stroke-width="1.46286"/>
</svg>
