<svg width="14" height="8" viewBox="0 0 14 8" fill="none" xmlns="http://www.w3.org/2000/svg">
<path fill-rule="evenodd" clip-rule="evenodd" d="M6.42438 7.45954H7.20925C7.20925 7.45954 7.44634 7.43352 7.56738 7.30303C7.67879 7.18324 7.67522 6.95828 7.67522 6.95828C7.67522 6.95828 7.65989 5.90512 8.14868 5.75003C8.63052 5.59727 9.24926 6.7679 9.90507 7.218C10.401 7.55866 10.7778 7.48396 10.7778 7.48396L12.5314 7.45954C12.5314 7.45954 13.4487 7.40303 13.0137 6.6818C12.9781 6.62279 12.7604 6.14827 11.7099 5.17319C10.6104 4.15265 10.7577 4.31772 12.0822 2.55242C12.8888 1.47733 13.2113 0.820983 13.1105 0.539867C13.0145 0.272122 12.4212 0.342891 12.4212 0.342891L10.4468 0.355191C10.4468 0.355191 10.3005 0.335225 10.1919 0.400112C10.0858 0.463751 10.0176 0.612063 10.0176 0.612063C10.0176 0.612063 9.70506 1.444 9.28829 2.15151C8.40912 3.64443 8.05759 3.72322 7.91391 3.63053C7.57968 3.41448 7.6631 2.76258 7.6631 2.29947C7.6631 0.852713 7.88254 0.249483 7.23581 0.093328C7.02119 0.0414545 6.86325 0.00722865 6.31439 0.0017026C5.60991 -0.00560603 5.01363 0.00384148 4.67601 0.169266C4.4514 0.279252 4.27813 0.524359 4.38366 0.538441C4.51415 0.555911 4.8097 0.618124 4.96639 0.8315C5.16872 1.10673 5.16159 1.72494 5.16159 1.72494C5.16159 1.72494 5.27781 3.42803 4.8901 3.63962C4.62396 3.78472 4.25888 3.48846 3.47507 2.13404C3.07345 1.44026 2.77024 0.673384 2.77024 0.673384C2.77024 0.673384 2.71177 0.530063 2.60749 0.453411C2.48092 0.360538 2.30409 0.330948 2.30409 0.330948L0.427906 0.343247C0.427906 0.343247 0.146256 0.351091 0.0428657 0.473555C-0.0491162 0.582472 0.035557 0.807792 0.035557 0.807792C0.035557 0.807792 1.50442 4.24428 3.16758 5.97607C4.69259 7.56382 6.42438 7.45954 6.42438 7.45954Z" fill="white"/>
</svg>
